PathFileType	4	(X/Y/Z)	/Users/visionmauri/Downloads/Videos/OAW13-top_Sports2D/OAW13-top_Sports2D_m_person00.trc
DataRate	CameraRate	NumFrames	NumMarkers	Units	OrigDataRate	OrigDataStartFrame	OrigNumFrames
27.0	27.0	9	22	m	27.0	741	1977
Frame#	Time	Hip			RHip			RKnee			RAnkle			RBigToe			RSmallToe			RHeel			LHip			LKnee			LAnkle			LBigToe			LSmallToe			LHeel			Neck			Head			Nose			RShoulder			RElbow			RWrist			LShoulder			LElbow			LWrist			
		X1	Y1	Z1	X2	Y2	Z2	X3	Y3	Z3	X4	Y4	Z4	X5	Y5	Z5	X6	Y6	Z6	X7	Y7	Z7	X8	Y8	Z8	X9	Y9	Z9	X10	Y10	Z10	X11	Y11	Z11	X12	Y12	Z12	X13	Y13	Z13	X14	Y14	Z14	X15	Y15	Z15	X16	Y16	Z16	X17	Y17	Z17	X18	Y18	Z18	X19	Y19	Z19	X20	Y20	Z20	X21	Y21	Z21	X22	Y22	Z22
741	27.458333333333336	2.745056792291332	0.061993550409890304	0.0301	2.634966769103612	0.2226294341937026	0.0301	2.086534912561222	-0.017237007858671938	0.129	1.5436088772845664	-0.13293562569798562	0.023	1.6220509183587393	-0.2981646598402382	0.2179	1.5396948309234337	-0.17278735913139426	0.1804	1.506996828577146	-0.11190255010052844	-0.0119	2.8063480810353743	-0.08141586623919247	0.0301	2.2690310217720344	-0.34303309422399897	0.129	1.7329503294332733	-0.39263859746355356	0.023	1.681395371196315	-0.6547374847354054	0.2179	1.7166543949270983	-0.6412011264518758	0.1804	1.6577145569959393	-0.3461044203460194	-0.0119	3.6195882918767297	0.29187766235932033	0.0008	4.0410553612652365	0.1314035186708013	0.0655	3.7022507996183927	0.08077445647317225	0.1076	3.419878848494594	0.5136334657371417	-0.01275	2.7703431849228886	0.4451872427841682	0.0702	2.3998598482289446	0.0789315128857014	0.1076	3.6303653449582964	0.10153876439241578	-0.01275	3.18961636111637	0.042945743893727795	0.0702	2.8684782826888378	-0.0924302389486573	0.1076
742	27.49538911381017	2.7298129409275544	0.041753502631351073	0.0301	2.6208694292576356	0.21107695673068333	0.0301	2.0480367150267034	-0.027566103210390613	0.129	1.5343408625491322	-0.14450952879527332	0.023	1.6090994989804563	-0.3057484303327296	0.2179	1.5499894757099542	-0.19569124078783803	0.1804	1.5038998490886222	-0.11478509867328267	-0.0119	2.788562980343863	-0.09883464891871267	0.0301	2.2485966573552374	-0.3571324454932607	0.129	1.7195316325964198	-0.39839507922521583	0.023	1.6820927093859046	-0.65949552805265	0.2179	1.7113394054386397	-0.6346000407081805	0.1804	1.6454456587988495	-0.34817012629027183	-0.0119	3.631082572070242	0.2711922427525605	0.0008	4.050699480926912	0.10040142705354134	0.0655	3.722204257673849	0.049339030960144525	0.1076	3.433019642271242	0.4920264902313842	-0.01275	2.7760651889669052	0.4189327169872603	0.0702	2.4109703988749307	0.032757569533730276	0.1076	3.6185075655164787	0.09007280666166863	-0.01275	3.1713299819735563	0.03297223174823824	0.0702	2.852977545359591	-0.1132221698541063	0.1076
743	27.532444894287	2.7228269791626714	0.02193348938838995	0.0301	2.622727920845098	0.20252480295998188	0.0301	2.0292172896719762	-0.039160841713833876	0.129	1.5326862084586803	-0.15062640355855694	0.023	1.600388170032981	-0.3030317139567442	0.2179	1.554526720813139	-0.20368279621373678	0.1804	1.5005709991625333	-0.1131292777711999	-0.0119	2.788949616046431	-0.1139361028435413	0.0301	2.2345856022970545	-0.3710152213642059	0.129	1.7116521841699892	-0.4088269765691142	0.023	1.6806509533228882	-0.6611713969344223	0.2179	1.709195180240909	-0.6314628760688626	0.1804	1.6381568722224018	-0.353831625482952	-0.0119	3.636333092886217	0.2523854650144171	0.0008	4.0592004367108965	0.07353639138575321	0.0655	3.733754932658299	0.02457752942915863	0.1076	3.4459283191611303	0.4709734672758183	-0.01275	2.7849919291175884	0.3972815735568621	0.0702	2.428248485458802	-5.038561895007721e-05	0.1076	3.6070473012359163	0.07520408488920038	-0.01275	3.156473541624546	0.021778816517409275	0.0702	2.8426581570345775	-0.132970528744865	0.1076
744	27.569500674763834	2.717787226203603	0.0009936389842628546	0.0301	2.627369656856715	0.18628853052096997	0.0301	2.0292405654224486	-0.056378787667222395	0.129	1.5339583623373783	-0.15013638431517992	0.023	1.5982051341574528	-0.2979469190802698	0.2179	1.5639134666572951	-0.20272340483790383	0.1804	1.5029596316017042	-0.1048047820911526	-0.0119	2.7936492417200425	-0.13092178557840536	0.0301	2.231019909654891	-0.38670957061570255	0.129	1.710175090528074	-0.4208778854178819	0.023	1.6785846442073615	-0.6619598584164538	0.2179	1.7071583711554321	-0.6335009910711115	0.1804	1.6362044722725668	-0.361996498146952	-0.0119	3.638953659563313	0.23471932039982107	0.0008	4.065367547542711	0.05203614479815203	0.0655	3.742005600503732	0.002520127174002126	0.1076	3.4539344561999825	0.45016288450853786	-0.01275	2.790199779830507	0.37664346435567214	0.0702	2.441214455817994	-0.027034728627709528	0.1076	3.601621648178518	0.06175699666416769	-0.01275	3.151860618379782	0.011158808137581988	0.0702	2.8430564551566744	-0.1457532506878507	0.1076
745	27.606556455240668	2.7105365950780675	-0.021893100189180212	0.0301	2.6217518177768726	0.1602992313874838	0.0301	2.0434472183830237	-0.0833095034880381	0.129	1.540225401623558	-0.14423859839592623	0.023	1.614297633450787	-0.2923051695695566	0.2179	1.5834989281395848	-0.20072017592325683	0.1804	1.5212093289059976	-0.09150108412962323	-0.0119	2.787098275842706	-0.1522524254814398	0.0301	2.2354020366873963	-0.4042909722209267	0.129	1.7097328073552946	-0.42852274340584484	0.023	1.6798363530288978	-0.6623876436236983	0.2179	1.703393157087428	-0.6406444410436536	0.1804	1.6347325327957989	-0.3673738660035536	-0.0119	3.64081996197556	0.21767838359556485	0.0008	4.070128357321143	0.03355456033216808	0.0655	3.7488741464892383	-0.021269492655065732	0.1076	3.455346059859862	0.4297905910710693	-0.01275	2.7872518927192016	0.35595831441221853	0.0702	2.443880351096911	-0.051391115746595106	0.1076	3.5999019221881756	0.051735864831566336	-0.01275	3.1515567466915733	0.0005160651204253371	0.0702	2.8408690974648674	-0.15576670896658168	0.1076
746	27.6436122357175	2.7047460043298837	-0.043348657206366374	0.0301	2.612383350128662	0.13556234978538317	0.0301	2.0642665438524634	-0.12214051643587849	0.129	1.5525209008114433	-0.1331363333661813	0.023	1.6286646621625886	-0.28401293216988543	0.2179	1.5836981485903696	-0.197462166603876	0.1804	1.543712938476144	-0.07514226946155866	-0.0119	2.7755020447260352	-0.17321628452064122	0.0301	2.241437878110468	-0.42017647686693776	0.129	1.7082658134452204	-0.4299972166021296	0.023	1.6858841512163132	-0.6674889374870872	0.2179	1.703988430577615	-0.655877988394043	0.1804	1.6310881761563303	-0.36805975180642003	-0.0119	3.6420082213576865	0.2039661262656661	0.0008	4.070167296302541	0.01881054776105785	0.0655	3.751066374932556	-0.0439201395430482	0.1076	3.452883514573133	0.41265067788623844	-0.01275	2.7796240191835935	0.3367893588170051	0.0702	2.4389929602054936	-0.06956437730687395	0.1076	3.5996721129148685	0.04062955631458006	-0.01275	3.145138049394725	-0.015397954960468533	0.0702	2.8212126041214765	-0.1735909651775023	0.1076
747	27.680668016194335	2.704269669675067	-0.060118545356771955	0.0301	2.612492324643747	0.11608549736986627	0.0301	2.074311692687353	-0.17086165319133906	0.129	1.5612781446249733	-0.12125253357731265	0.023	1.606354570198604	-0.2737760775462489	0.2179	1.5423366418330946	-0.1846090303015563	0.1804	1.544147196382767	-0.05684857738555355	-0.0119	2.7721557234054215	-0.18943095835877286	0.0301	2.244398316897362	-0.43107962668299155	0.129	1.7062096034870393	-0.43126044241747524	0.023	1.689059031930756	-0.6759651015659832	0.2179	1.7103583774792797	-0.6757686771106091	0.1804	1.6254171596715896	-0.3707865971856252	-0.0119	3.64367494585469	0.19434884628707683	0.0008	4.066925678593931	0.005867451691748211	0.0655	3.7509706085972736	-0.06050195645209866	0.1076	3.450771217089487	0.39977609646379164	-0.01275	2.772687048424598	0.319730820390088	0.0702	2.4288299527862214	-0.07881063339697886	0.1076	3.601183466121371	0.02682718204029025	-0.01275	3.1376178475968013	-0.03834764669059383	0.0702	2.8010531904220444	-0.19900607386265887	0.1076
748	27.717723796671166	2.706968320459598	-0.07561521261822733	0.0301	2.619873453762583	0.08894886301055069	0.0301	2.063638627182285	-0.21942571294021507	0.129	1.557397361454662	-0.1147862710764582	0.023	1.569102748750689	-0.2593614025939983	0.2179	1.4912720944744298	-0.14681726231851416	0.1804	1.5240807120731923	-0.037096218359006505	-0.0119	2.7742397759384603	-0.20315389858028324	0.0301	2.243257600178062	-0.4392311199638816	0.129	1.7025558420638336	-0.4374564215619798	0.023	1.6852256426556178	-0.6813997850279386	0.2179	1.7146598559489856	-0.6876749277259177	0.1804	1.619102444555417	-0.38088114378243937	-0.0119	3.646079884339733	0.18495344408126216	0.0008	4.06696800193054	-0.009897270848350658	0.0655	3.7514264063577394	-0.0709930100797501	0.1076	3.449507477153174	0.3883923554517932	-0.01275	2.7645584987472316	0.3043271410594643	0.0702	2.4141339485488955	-0.07996104930762757	0.1076	3.600780529463266	0.016798899482099377	-0.01275	3.1425157857432877	-0.06210900266070256	0.0702	2.804016723134137	-0.2250139921732883	0.1076
749	27.754779577148	2.7129307355516303	-0.09238872548231351	0.0301	2.6269411373887626	0.049743274685363714	0.0301	2.0479761935640304	-0.25499834892080475	0.129	1.5489592060207416	-0.12167659039647638	0.023	1.5723574164646064	-0.26594828316677915	0.2179	1.4754993045365137	-0.13077181506449478	0.1804	1.511025907304821	-0.028734984786404644	-0.0119	2.7755990261373857	-0.21588469346030267	0.0301	2.2443067304321285	-0.4479608711772005	0.129	1.7007213487851844	-0.44504016688080533	0.023	1.6826767243498548	-0.6839432306241413	0.2179	1.712370722245929	-0.6874715535016408	0.1804	1.6154244779929021	-0.38062444612530194	-0.0119	3.6455808424361953	0.17443260881332368	0.0008	4.071054767754575	-0.028588266107693782	0.0655	3.747561418395385	-0.07619850432119821	0.1076	3.4475500477553553	0.3753989562474055	-0.01275	2.7537078093731195	0.2921367054066948	0.0702	2.396424626112961	-0.07384907438540542	0.1076	3.5964867294251213	0.01465553727365617	-0.01275	3.1598030629460774	-0.08291247737600985	0.0702	2.8248076474939574	-0.2511674038308753	0.1076
